<svg class="product-tab__svg" aria-hidden="true" xmlns="http://www.w3.org/2000/svg" width="231" height="150" viewBox="0 0 231 150" version="1.1">
	<path d="M 91 3.640 C 86.942 4.194, 33.640 7.899, 19.250 8.628 L 6 9.299 6 13.150 C 6 16.313, 6.351 17, 7.969 17 C 9.119 17, 9.748 17.519, 9.483 18.250 C 9.233 18.938, 12.232 23.325, 16.148 28 C 27.498 41.551, 36 52.687, 36 54.003 C 36 54.672, 29.340 64.283, 21.199 75.360 C 1.404 102.298, 2.383 100.677, 2.446 106.388 L 2.500 111.277 13.500 114.204 C 36.144 120.231, 124.661 144.960, 128.682 146.383 C 132.782 147.834, 133.704 147.670, 175.978 137.936 C 199.690 132.476, 220.871 127.724, 223.046 127.377 C 226.825 126.772, 226.997 126.584, 226.930 123.122 C 226.891 121.130, 226.554 118.744, 226.180 117.819 C 225.806 116.895, 217.123 106.971, 206.885 95.768 L 188.270 75.397 201.742 58.449 C 223.173 31.488, 226.639 26.687, 226.194 24.584 C 225.950 23.429, 226.671 22.002, 228.009 20.993 C 229.782 19.656, 230.096 18.713, 229.569 16.312 L 228.908 13.305 215.204 12.165 C 174.842 8.807, 98.415 3.020, 96.134 3.150 C 94.685 3.232, 92.375 3.453, 91 3.640 M 11 13.522 C 11 15.518, 11.800 15.714, 24.750 16.891 C 32.313 17.578, 57.625 20.111, 81 22.520 C 104.375 24.928, 126.569 27.104, 130.321 27.354 C 134.072 27.604, 137.410 28.076, 137.737 28.404 C 138.703 29.370, 141 29.085, 141 28 C 141 27.450, 140.464 27.113, 139.809 27.250 C 139.155 27.388, 138.434 26.647, 138.208 25.604 C 137.903 24.199, 138.211 23.867, 139.399 24.323 C 140.279 24.661, 141 24.494, 141 23.953 C 141 23.411, 139.762 23.015, 138.250 23.072 C 136.208 23.149, 41.132 14.453, 14.250 11.731 C 11.502 11.452, 11 11.729, 11 13.522 M 185.263 19.192 C 165.593 21.223, 149.162 22.911, 148.750 22.942 C 148.037 22.997, 147.629 28, 148.338 28 C 148.523 28, 165.511 26.147, 186.088 23.883 C 206.664 21.619, 224.512 19.814, 225.750 19.872 C 226.988 19.930, 228 19.547, 228 19.020 C 228 18.494, 227.253 18.350, 226.339 18.700 C 225.067 19.188, 224.796 18.888, 225.180 17.419 C 225.838 14.902, 227.550 14.826, 185.263 19.192 M 13.931 22.845 C 14.994 24.305, 20.610 31.350, 26.411 38.500 L 36.958 51.500 55.229 54.589 C 65.278 56.289, 73.643 57.570, 73.819 57.437 C 74.043 57.267, 52.187 27.383, 49.549 24.254 C 49.435 24.119, 42.628 23.340, 34.421 22.522 C 26.214 21.704, 17.812 20.845, 15.750 20.612 L 11.999 20.190 13.931 22.845 M 221.733 25.250 C 221.461 27.038, 221.453 28.864, 221.715 29.310 C 222.465 30.584, 224.933 26.745, 224.968 24.250 C 225.018 20.721, 222.294 21.563, 221.733 25.250 M 53.116 27.111 C 54.527 28.975, 60.282 36.688, 65.906 44.250 C 71.529 51.813, 76.480 58, 76.909 58 C 77.589 58, 109.580 63.137, 117.368 64.496 L 120.235 64.997 117.774 61.749 C 116.421 59.962, 110.664 51.975, 104.982 44 C 99.300 36.025, 94.281 29.249, 93.828 28.943 C 93.376 28.636, 84.342 27.589, 73.753 26.615 C 63.164 25.641, 53.612 24.592, 52.526 24.284 C 50.750 23.779, 50.809 24.064, 53.116 27.111 M 213.815 28.035 C 211.788 29.105, 209.844 30.443, 209.496 31.007 C 209.147 31.571, 208.454 31.781, 207.956 31.473 C 207.075 30.928, 167.439 51.481, 166.527 52.956 C 165.916 53.945, 177.143 69.029, 178.066 68.459 C 178.463 68.214, 185.187 59.887, 193.008 49.954 C 200.830 40.022, 207.439 32.105, 207.695 32.361 C 207.951 32.617, 201.590 41.219, 193.559 51.475 C 185.529 61.732, 179.219 70.546, 179.538 71.062 C 180.814 73.127, 182.790 71.510, 189.253 63.110 C 192.967 58.283, 196.680 54.333, 197.503 54.333 C 198.326 54.333, 199 54.510, 199 54.725 C 199 55.250, 193.148 62.836, 190.194 66.142 C 188.895 67.595, 187.983 69.660, 188.166 70.730 C 188.407 72.136, 192.981 66.979, 204.646 52.148 C 213.526 40.858, 220.582 31.075, 220.327 30.409 C 219.827 29.108, 218.262 29.080, 216.250 30.337 C 214.468 31.451, 214.705 29.984, 216.655 27.829 C 218.695 25.574, 218.438 25.593, 213.815 28.035 M 143.364 28.507 C 143.612 29.153, 143.447 30.277, 142.997 31.006 C 142.451 31.888, 143.927 34.525, 147.424 38.915 C 150.310 42.537, 157.888 52.370, 164.266 60.767 C 170.643 69.164, 176.148 75.569, 176.499 75.001 C 176.851 74.432, 177.552 74.223, 178.058 74.536 C 180.692 76.164, 176.106 69.484, 161.576 50.530 C 152.734 38.997, 145.615 29.059, 145.756 28.447 C 145.896 27.834, 145.314 27.333, 144.463 27.333 C 143.611 27.333, 143.117 27.862, 143.364 28.507 M 96.646 30.250 C 97.303 31.324, 114.865 56.038, 119.803 62.837 C 121.345 64.959, 123.743 65.523, 146 68.992 C 159.475 71.093, 170.612 72.705, 170.748 72.574 C 170.885 72.444, 164.336 63.599, 156.195 52.918 L 141.394 33.500 120.947 31.306 C 96.187 28.649, 95.653 28.626, 96.646 30.250 M 216.490 31.016 C 216.144 31.575, 215.493 31.805, 215.042 31.526 C 213.942 30.846, 208.735 37.761, 209.461 38.937 C 209.775 39.446, 209.506 40.187, 208.862 40.585 C 208.084 41.066, 207.938 40.838, 208.428 39.905 C 208.833 39.132, 207.341 40.525, 205.112 43 C 202.883 45.475, 201.046 47.798, 201.030 48.162 C 200.983 49.202, 203.636 48.547, 205.399 47.084 C 207.583 45.271, 207.442 43.409, 205.250 45.128 C 203.666 46.370, 203.630 46.335, 204.863 44.761 C 205.613 43.805, 206.586 43.244, 207.026 43.516 C 207.465 43.787, 209.214 42.255, 210.912 40.111 C 214.339 35.785, 214.929 34.026, 212.250 36.128 C 210.671 37.366, 210.632 37.332, 211.846 35.782 C 212.586 34.837, 213.635 34.162, 214.176 34.282 C 214.718 34.402, 215.855 33.487, 216.702 32.250 C 217.550 31.012, 217.991 30, 217.681 30 C 217.371 30, 216.835 30.457, 216.490 31.016 M 20.631 78.486 L 4.124 100.894 9.312 102.386 C 12.166 103.206, 20.125 105.295, 27 107.028 L 39.500 110.178 41.732 107.339 C 42.960 105.778, 48.923 97.763, 54.982 89.528 C 61.042 81.294, 66 75.017, 66 75.580 C 66 76.142, 60.395 84.224, 53.545 93.539 L 41.090 110.475 55.795 114.240 C 63.883 116.312, 83.779 121.605, 100.010 126.003 C 116.240 130.401, 130.263 134, 131.172 134 C 132.185 134, 138.053 126.542, 146.319 114.750 C 153.740 104.162, 162.561 91.675, 165.921 87 L 172.030 78.500 166.265 77.395 C 160.815 76.350, 160.637 76.225, 163 75.116 L 165.500 73.944 163 74.565 C 156.767 76.115, 154.720 76.263, 155.432 75.111 C 155.954 74.266, 155.005 74.135, 151.920 74.629 C 148.971 75.100, 147.898 74.974, 148.369 74.212 C 148.834 73.459, 147.899 73.304, 145.367 73.715 C 142.554 74.172, 141.873 74.015, 142.470 73.049 C 143.058 72.098, 142.540 71.938, 140.375 72.401 C 138.794 72.739, 133.900 72.375, 129.500 71.592 C 125.100 70.808, 121.217 70.467, 120.870 70.834 C 120.524 71.200, 113.315 81.175, 104.849 93 C 85.404 120.162, 84.730 121.063, 84.221 120.554 C 83.990 120.323, 91.924 108.853, 101.853 95.067 C 111.782 81.280, 119.714 70, 119.480 70 C 119.246 70, 111.054 68.638, 101.277 66.973 C 91.500 65.308, 74.275 62.381, 63 60.469 C 51.725 58.556, 41.294 56.786, 39.819 56.535 C 37.332 56.111, 35.945 57.697, 20.631 78.486 M 183.551 72.917 C 183.183 73.513, 183.359 74, 183.941 74 C 184.523 74, 185 74.675, 185 75.500 C 185 76.325, 184.550 77, 184 77 C 183.450 77, 183 77.477, 183 78.059 C 183 78.641, 183.450 78.840, 184 78.500 C 184.550 78.160, 185 78.606, 185 79.491 C 185 80.877, 219.109 117.918, 221.228 118.833 C 222.896 119.554, 221.876 121.575, 219.750 121.762 C 218.512 121.871, 200.296 125.794, 179.268 130.480 C 158.241 135.166, 140.804 139, 140.518 139 C 140.233 139, 140 140.125, 140 141.500 C 140 142.875, 140.460 144, 141.022 144 C 141.584 144, 159.697 139.911, 181.272 134.914 C 202.847 129.916, 221.355 125.843, 222.399 125.863 C 223.717 125.887, 223.979 125.579, 223.256 124.856 C 222.553 124.153, 222.530 122.665, 223.185 120.293 C 224.038 117.202, 223.858 116.452, 221.709 114.136 C 195.861 86.292, 187.468 77.017, 185.996 74.667 C 184.929 72.964, 183.954 72.266, 183.551 72.917 M 153.773 106.002 C 134.923 132.401, 131.636 138, 134.988 138 C 136.046 138, 138.139 135.175, 159.435 105.011 C 169.629 90.573, 177.725 78.363, 177.426 77.880 C 177.127 77.396, 176.342 77, 175.681 77 C 175.021 77, 165.162 90.051, 153.773 106.002 M 5.429 108.076 C 5.429 109.054, 5.744 109.658, 6.129 109.420 C 6.514 109.182, 6.980 109.381, 7.165 109.861 C 7.505 110.747, 122.827 143.129, 126.500 143.369 C 127.600 143.441, 129.095 144.063, 129.821 144.750 C 130.548 145.438, 131.561 146, 132.071 146 C 133.499 146, 133.182 140.011, 131.750 139.923 C 129.999 139.816, 129.406 139.658, 111.500 134.515 C 98.958 130.914, 16.942 109.053, 7.464 106.786 C 5.998 106.435, 5.429 106.796, 5.429 108.076 M 191.500 121.926 C 187.704 123.443, 171.375 124.178, 167.092 123.025 C 164.569 122.345, 162.350 122.264, 161.365 122.816 C 160.171 123.484, 161.822 124.273, 167.784 125.881 L 175.810 128.047 185.129 125.971 C 190.254 124.830, 195.584 124.126, 196.974 124.408 C 198.363 124.690, 198.825 124.621, 198 124.254 C 197.046 123.831, 198.320 123.152, 201.500 122.390 L 206.500 121.192 200 121.159 C 196.425 121.141, 192.600 121.486, 191.500 121.926 M 155.510 125.859 C 153.810 126.701, 153.069 127.523, 153.793 127.764 C 154.494 127.998, 155.712 127.654, 156.499 127.001 C 158.006 125.750, 164.334 126.352, 167.001 128.001 C 167.918 128.567, 166.234 128.705, 162.481 128.371 C 158.094 127.981, 156.900 128.123, 158 128.904 C 159.322 129.843, 159.313 129.971, 157.932 129.985 C 155.497 130.008, 145.741 133.074, 146.305 133.639 C 147.025 134.358, 169 129.865, 169 128.998 C 169 128.602, 170.238 128.442, 171.750 128.643 C 175.530 129.146, 173.747 128.465, 165.500 126.255 C 159.201 124.566, 158.201 124.527, 155.510 125.859 M 90.083 125.384 C 90.941 126.176, 129.186 136.105, 130.144 135.785 C 130.694 135.602, 122.170 133.100, 111.201 130.226 C 92.004 125.195, 89.176 124.547, 90.083 125.384" stroke="none" fill="currentColor" fill-rule="evenodd"/>
</svg>